<svg width="33" height="33" viewBox="0 0 33 33" fill="none" xmlns="http://www.w3.org/2000/svg">
<path d="M1.08655 1.21883L1.91345 1.78117L1.91345 1.78117L1.08655 1.21883ZM1.035 1.68376L1.96501 1.31624L1.96501 1.31624L1.035 1.68376ZM12.6881 31.1715L13.6182 30.8039L13.6182 30.8039L12.6881 31.1715ZM25.2713 30.8039L26.2013 30.4364L25.2713 30.8039ZM19.9594 17.3624V16.3624C19.6283 16.3624 19.3187 16.5263 19.1325 16.8001C18.9463 17.0739 18.9077 17.422 19.0294 17.73L19.9594 17.3624ZM25.5714 17.3624H26.5714C26.5714 16.8101 26.1237 16.3624 25.5714 16.3624V17.3624ZM25.9042 23.5199L25.5697 24.4623L25.5697 24.4623L25.9042 23.5199ZM26.4595 23.3639L27.2358 23.9943V23.9943L26.4595 23.3639ZM31.4834 17.1776L32.2597 17.808L32.2597 17.808L31.4834 17.1776ZM31.5094 16.5822L30.6812 17.1427L31.5094 16.5822ZM26.4855 9.15871L25.6573 9.71918L26.4855 9.15871ZM25.7912 9.02486L25.2307 8.19669L25.2307 8.19669L25.7912 9.02486ZM25.6573 9.71918L24.8291 10.2797L24.8291 10.2797L25.6573 9.71918ZM30.4732 16.8353L31.2495 17.4657C31.5273 17.1236 31.5484 16.6399 31.3014 16.2748L30.4732 16.8353ZM26.5714 21.6398H25.5714C25.5714 22.0632 25.838 22.4407 26.2369 22.5823C26.6359 22.7238 27.0808 22.5989 27.3477 22.2703L26.5714 21.6398ZM19.5642 16.3624L18.6342 16.73C18.785 17.1117 19.1538 17.3624 19.5642 17.3624V16.3624ZM13.6182 1.31624L14.5482 0.948708L14.5482 0.948705L13.6182 1.31624ZM18.489 16.3624V17.3624C18.82 17.3624 19.1297 17.1986 19.3159 16.9248C19.502 16.651 19.5406 16.3028 19.419 15.9949L18.489 16.3624ZM12.8131 2L13.7431 1.63247C13.5923 1.25078 13.2235 1 12.8131 1V2ZM2.23522 2V1C1.90413 1 1.59451 1.16387 1.40832 1.43765C1.22214 1.71143 1.18353 2.05961 1.30521 2.36753L2.23522 2ZM13.4932 30.4877L12.5632 30.8552C12.714 31.2369 13.0828 31.4877 13.4932 31.4877V30.4877ZM24.0711 30.4877V31.4877C24.4022 31.4877 24.7118 31.3238 24.898 31.0501C25.0842 30.7763 25.1228 30.4281 25.0011 30.1202L24.0711 30.4877ZM18.8841 17.3624L19.8142 16.9949C19.6633 16.6132 19.2946 16.3624 18.8841 16.3624V17.3624ZM1.91345 1.78117C1.82036 1.91806 1.66555 2 1.5 2V0C1.00337 0 0.538932 0.245812 0.259652 0.656477L1.91345 1.78117ZM1.96501 1.31624C2.02585 1.47019 2.00655 1.64429 1.91345 1.78117L0.259652 0.656477C-0.0196286 1.06714 -0.0775425 1.58942 0.104984 2.05129L1.96501 1.31624ZM13.6182 30.8039L1.96501 1.31624L0.104984 2.05129L11.7581 31.539L13.6182 30.8039ZM13.1531 30.4877C13.3584 30.4877 13.5427 30.6131 13.6182 30.8039L11.7581 31.539C11.9844 32.1115 12.5375 32.4877 13.1531 32.4877V30.4877ZM24.8063 30.4877H13.1531V32.4877H24.8063V30.4877ZM24.3928 30.7065C24.4859 30.5696 24.6407 30.4877 24.8063 30.4877V32.4877C25.3029 32.4877 25.7674 32.2419 26.0466 31.8312L24.3928 30.7065ZM24.3413 31.1715C24.2804 31.0175 24.2997 30.8434 24.3928 30.7065L26.0466 31.8312C26.3259 31.4206 26.3838 30.8983 26.2013 30.4364L24.3413 31.1715ZM19.0294 17.73L24.3413 31.1715L26.2013 30.4364L20.8894 16.9949L19.0294 17.73ZM25.5714 16.3624H19.9594V18.3624H25.5714V16.3624ZM26.5714 23.0487V17.3624H24.5714V23.0487H26.5714ZM26.2386 22.5775C26.4381 22.6483 26.5714 22.837 26.5714 23.0487H24.5714C24.5714 23.6837 24.9713 24.2499 25.5697 24.4623L26.2386 22.5775ZM25.6833 22.7335C25.8167 22.5691 26.0392 22.5067 26.2386 22.5775L25.5697 24.4623C26.1682 24.6747 26.8355 24.4872 27.2358 23.9943L25.6833 22.7335ZM30.7072 16.5472L25.6833 22.7335L27.2358 23.9943L32.2597 17.808L30.7072 16.5472ZM30.6812 17.1427C30.5577 16.9601 30.5682 16.7183 30.7072 16.5472L32.2597 17.808C32.6765 17.2948 32.7081 16.5693 32.3376 16.0217L30.6812 17.1427ZM25.6573 9.71918L30.6812 17.1427L32.3376 16.0217L27.3137 8.59824L25.6573 9.71918ZM26.3516 9.85303C26.123 10.0078 25.8121 9.94788 25.6573 9.71918L27.3137 8.59824C26.8494 7.91216 25.9168 7.73238 25.2307 8.19669L26.3516 9.85303ZM26.4855 9.15871C26.6403 9.38741 26.5803 9.69827 26.3516 9.85303L25.2307 8.19669C24.5446 8.661 24.3648 9.59357 24.8291 10.2797L26.4855 9.15871ZM31.3014 16.2748L26.4855 9.15871L24.8291 10.2797L29.645 17.3958L31.3014 16.2748ZM27.3477 22.2703L31.2495 17.4657L29.6969 16.2049L25.7951 21.0094L27.3477 22.2703ZM25.5714 16.8624V21.6398H27.5714V16.8624H25.5714ZM26.0714 17.3624C25.7953 17.3624 25.5714 17.1386 25.5714 16.8624H27.5714C27.5714 16.034 26.8998 15.3624 26.0714 15.3624V17.3624ZM19.5642 17.3624H26.0714V15.3624H19.5642V17.3624ZM12.6881 1.68376L18.6342 16.73L20.4942 15.9949L14.5482 0.948708L12.6881 1.68376ZM13.1531 2C12.9479 2 12.7636 1.87461 12.6881 1.68377L14.5482 0.948705C14.3219 0.376163 13.7688 0 13.1531 0V2ZM1.5 2H13.1531V0H1.5V2ZM19.419 15.9949L13.7431 1.63247L11.8831 2.36753L17.5589 16.73L19.419 15.9949ZM12.8131 1H2.23522V3H12.8131V1ZM1.30521 2.36753L12.5632 30.8552L14.4232 30.1202L3.16524 1.63247L1.30521 2.36753ZM13.4932 31.4877H24.0711V29.4877H13.4932V31.4877ZM25.0011 30.1202L19.8142 16.9949L17.9541 17.73L23.1411 30.8552L25.0011 30.1202ZM18.8841 16.3624H14.8179V18.3624H18.8841V16.3624ZM14.8179 16.3624C15.094 16.3624 15.3179 16.5863 15.3179 16.8624H13.3179C13.3179 17.6909 13.9895 18.3624 14.8179 18.3624V16.3624ZM15.3179 16.8624C15.3179 17.1386 15.094 17.3624 14.8179 17.3624V15.3624C13.9895 15.3624 13.3179 16.034 13.3179 16.8624H15.3179ZM14.8179 17.3624H18.489V15.3624H14.8179V17.3624Z" fill="#9A9A9A"/>
</svg>
