<svg width="835" height="156" viewBox="0 0 835 156" fill="none" xmlns="http://www.w3.org/2000/svg">
<line x1="26.5938" x2="26.5938" y2="156" stroke="#D1D1D1" stroke-opacity="0.25" stroke-dasharray="5 5"/>
<line x1="52.6875" x2="52.6875" y2="156" stroke="#D1D1D1" stroke-opacity="0.5" stroke-dasharray="10 10"/>
<line x1="78.7812" x2="78.7812" y2="156" stroke="#D1D1D1" stroke-opacity="0.25" stroke-dasharray="5 5"/>
<line x1="104.875" x2="104.875" y2="156" stroke="#D1D1D1"/>
<line x1="130.969" x2="130.969" y2="156" stroke="#D1D1D1" stroke-opacity="0.25" stroke-dasharray="5 5"/>
<path d="M156.562 0V156" stroke="#D1D1D1" stroke-opacity="0.5" stroke-dasharray="10 10"/>
<line x1="183.156" x2="183.156" y2="156" stroke="#D1D1D1" stroke-opacity="0.25" stroke-dasharray="5 5"/>
<line x1="209.25" x2="209.25" y2="156" stroke="#D1D1D1"/>
<line x1="235.344" x2="235.344" y2="156" stroke="#D1D1D1" stroke-opacity="0.25" stroke-dasharray="5 5"/>
<line x1="261.438" x2="261.438" y2="156" stroke="#D1D1D1" stroke-opacity="0.5" stroke-dasharray="10 10"/>
<line x1="287.531" x2="287.531" y2="156" stroke="#D1D1D1" stroke-opacity="0.25" stroke-dasharray="5 5"/>
<line x1="313.625" x2="313.625" y2="156" stroke="#D1D1D1"/>
<line x1="339.719" x2="339.719" y2="156" stroke="#D1D1D1" stroke-opacity="0.25" stroke-dasharray="5 5"/>
<line x1="365.812" x2="365.812" y2="156" stroke="#D1D1D1" stroke-opacity="0.5" stroke-dasharray="10 10"/>
<line x1="391.906" x2="391.906" y2="156" stroke="#D1D1D1" stroke-opacity="0.25" stroke-dasharray="5 5"/>
<line x1="418" x2="418" y2="156" stroke="#D1D1D1"/>
<line x1="444.094" x2="444.094" y2="156" stroke="#D1D1D1" stroke-opacity="0.25" stroke-dasharray="5 5"/>
<line x1="470.188" x2="470.188" y2="156" stroke="#D1D1D1" stroke-opacity="0.5" stroke-dasharray="10 10"/>
<line x1="496.281" x2="496.281" y2="156" stroke="#D1D1D1" stroke-opacity="0.25" stroke-dasharray="5 5"/>
<line x1="522.375" x2="522.375" y2="156" stroke="#D1D1D1"/>
<line x1="548.469" x2="548.469" y2="156" stroke="#D1D1D1" stroke-opacity="0.25" stroke-dasharray="5 5"/>
<line x1="574.562" x2="574.562" y2="156" stroke="#D1D1D1" stroke-opacity="0.5" stroke-dasharray="10 10"/>
<line x1="600.656" x2="600.656" y2="156" stroke="#D1D1D1" stroke-opacity="0.25" stroke-dasharray="5 5"/>
<line x1="626.75" x2="626.75" y2="156" stroke="#D1D1D1"/>
<line x1="652.844" x2="652.844" y2="156" stroke="#D1D1D1" stroke-opacity="0.25" stroke-dasharray="5 5"/>
<line x1="678.938" x2="678.938" y2="156" stroke="#D1D1D1" stroke-opacity="0.5" stroke-dasharray="10 10"/>
<line x1="705.031" x2="705.031" y2="156" stroke="#D1D1D1" stroke-opacity="0.25" stroke-dasharray="5 5"/>
<line x1="731.125" x2="731.125" y2="156" stroke="#D1D1D1"/>
<line x1="757.219" x2="757.219" y2="156" stroke="#D1D1D1" stroke-opacity="0.25" stroke-dasharray="5 5"/>
<line x1="783.312" x2="783.312" y2="156" stroke="#D1D1D1" stroke-opacity="0.5" stroke-dasharray="10 10"/>
<line x1="809.406" x2="809.406" y2="156" stroke="#D1D1D1" stroke-opacity="0.25" stroke-dasharray="5 5"/>
</svg>
