<svg width="34" height="30" viewBox="0 0 34 30" fill="none" xmlns="http://www.w3.org/2000/svg">
<path d="M1.11154 12.5703C0.444066 13.061 0.300748 13.9998 0.791431 14.6673C1.28211 15.3348 2.22099 15.4781 2.88846 14.9874L1.11154 12.5703ZM31.0334 14.9259C31.6669 15.4597 32.6132 15.3789 33.147 14.7455C33.6809 14.112 33.6001 13.1657 32.9666 12.6318L31.0334 14.9259ZM7.93182 13.7788C7.93182 12.9504 7.26025 12.2788 6.43182 12.2788C5.60339 12.2788 4.93182 12.9504 4.93182 13.7788H7.93182ZM29.0682 13.7788C29.0682 12.9504 28.3966 12.2788 27.5682 12.2788C26.7398 12.2788 26.0682 12.9504 26.0682 13.7788H29.0682ZM17.3882 2.46645L18.2767 3.67502L17.3882 2.46645ZM2.88846 14.9874L18.2767 3.67502L16.4998 1.25788L1.11154 12.5703L2.88846 14.9874ZM17.6583 3.65451L31.0334 14.9259L32.9666 12.6318L19.5915 1.36046L17.6583 3.65451ZM4.93182 13.7788V27.25H7.93182V13.7788H4.93182ZM7.43182 29.75H17.0227V26.75H7.43182V29.75ZM19.5227 27.25V21.1731H16.5227V27.25H19.5227ZM24.8182 29.75H26.5682V26.75H24.8182V29.75ZM29.0682 27.25V13.7788H26.0682V27.25H29.0682ZM19.0227 21.6731H22.8182V18.6731H19.0227V21.6731ZM22.3182 21.1731V27.25H25.3182V21.1731H22.3182ZM22.8182 21.6731C22.542 21.6731 22.3182 21.4492 22.3182 21.1731H25.3182C25.3182 19.7924 24.1989 18.6731 22.8182 18.6731V21.6731ZM26.5682 29.75C27.9489 29.75 29.0682 28.6307 29.0682 27.25H26.0682C26.0682 26.9739 26.292 26.75 26.5682 26.75V29.75ZM24.8182 26.75C25.0943 26.75 25.3182 26.9739 25.3182 27.25H22.3182C22.3182 28.6307 23.4375 29.75 24.8182 29.75V26.75ZM17.0227 29.75C18.4034 29.75 19.5227 28.6307 19.5227 27.25H16.5227C16.5227 26.9739 16.7466 26.75 17.0227 26.75V29.75ZM4.93182 27.25C4.93182 28.6307 6.05111 29.75 7.43182 29.75V26.75C7.70796 26.75 7.93182 26.9739 7.93182 27.25H4.93182ZM19.5227 21.1731C19.5227 21.4492 19.2989 21.6731 19.0227 21.6731V18.6731C17.642 18.6731 16.5227 19.7924 16.5227 21.1731H19.5227ZM18.2767 3.67502C18.0906 3.81184 17.835 3.80336 17.6583 3.65451L19.5915 1.36046C18.7084 0.616197 17.4303 0.573795 16.4998 1.25788L18.2767 3.67502Z" fill="white"/>
</svg>
